<svg width="59" height="49" viewBox="0 0 59 49" fill="none" xmlns="http://www.w3.org/2000/svg">
<path d="M57.0647 14.9605C55.9428 12.099 54.2292 9.48508 52.027 7.27619C49.7607 5.03065 47.0574 3.23378 44.0704 1.98739C40.9608 0.663611 37.4923 0.00114812 33.665 0C29.7719 0 26.2562 0.647537 23.1178 1.94261C20.0796 3.17098 17.3385 4.98854 15.0662 7.28135C12.8262 9.55632 11.0673 12.2268 9.88677 15.1448C9.01638 17.2796 8.45325 19.5184 8.21292 21.7993H18.6937C18.7404 21.2671 18.7852 20.89 18.7852 20.89C18.9518 18.9832 19.4617 17.1185 20.2922 15.379C21.0533 13.7573 22.1382 12.2945 23.4856 11.0736C26.2282 8.6428 29.8299 7.30218 33.5627 7.32269C35.4652 7.3146 37.3522 7.65175 39.1243 8.31638C40.8288 8.94877 42.3942 9.88354 43.7385 11.0719C45.093 12.2963 46.1952 13.7545 46.9875 15.3704C47.8472 17.1025 48.3735 18.9695 48.5412 20.8814H22.4486L24.0848 23.3733L0 23.7341L8.21292 26.2511L19.3826 29.3717L35.1397 32.7006L31.313 27.7528H58.525C58.586 27.3315 58.6458 26.8039 58.7044 26.1702C58.763 25.5364 58.7947 24.8584 58.7995 24.1363C58.8124 21.0014 58.2244 17.8911 57.0647 14.9605Z" fill="black"/>
<path d="M44.7761 37.4235C43.8953 38.3294 42.8804 39.1058 41.7639 39.7278C40.6004 40.3751 39.3479 40.8621 38.0431 41.1744C36.705 41.5049 35.3289 41.6721 33.9473 41.6721C30.213 41.6824 26.6193 40.3056 23.9186 37.8299C22.5492 36.5759 21.4299 35.0923 20.6157 33.4522C20.1749 32.5417 19.8369 31.5885 19.6075 30.6089L8.2207 27.4246C8.45941 29.6771 9.02024 31.8873 9.88737 33.9929C11.0691 36.8842 12.8286 39.5257 15.0668 41.7686C17.3525 44.0376 20.0949 45.837 23.1274 47.0573C26.2658 48.3524 29.7498 49 33.5795 49C38.7894 49 43.3564 47.8702 47.2806 45.6107C51.2047 43.3512 54.0154 40.4436 55.7126 36.8879L46.8608 34.4476C46.3443 35.5446 45.6396 36.5505 44.7761 37.4235Z" fill="#43AA87"/>
</svg>
